<svg id="Слой_1" data-name="Слой 1" xmlns="http://www.w3.org/2000/svg" viewBox="0 0 465 84"><path d="M73.36,67.37c.76,2.74-.31,4.56-1.83,6.25-6.88,7-15.58,9.79-25,10.68-21.53,2-40-11-44.27-31.13A40.91,40.91,0,0,1,46.35,3.87c4,.3,7.93,1.21,11.9,1.82V.8c.76.62,1.37.92,1.84,1.39,4,4,7.78,8.08,11.75,12.05a5.19,5.19,0,0,1,1.37,5.65c-.91-.6-1.67-1.22-2.44-1.67-14.35-10.69-34.5-8.1-44.57,5.64-10.85,14.81-7.18,38,7.32,47.48,11.29,7.34,27.33,6.41,37.56-2.28A13.89,13.89,0,0,0,73.36,67.37Z"/><path d="M31.09,43.27c.61-2.62.91-6,2-9C36.28,24.93,45,19.59,54.75,20.5c10.38.91,17.7,7.64,19.39,18.16C75.36,46,74.45,53,70,59.12c-5.49,7.47-13.13,9.46-22,7.77C39.34,65.21,34.3,59.42,32.16,51A48.16,48.16,0,0,1,31.09,43.27Zm27.77.59c-.3-4.26-.46-8.53-1.07-12.83-.61-4-2.45-6-4.88-6s-4.12,1.85-4.73,5.82a81.43,81.43,0,0,0,0,25.79c.61,4,2.3,5.79,4.73,5.79s4.27-1.82,4.88-5.95S58.4,48.13,58.86,43.86Z"/><path d="M95.66,60.79c1.22.17,2.3.17,3.51.32v3.8H77.94v-3.8a26.94,26.94,0,0,1,3.82-.32v-34c-1.22-.16-2.45-.16-3.67-.3V22.62H94.57v5.95a9,9,0,0,0,1.37-1.67A12.8,12.8,0,0,1,109.68,22c4.43,1.22,7.64,5,7.94,10.68.3,6,.15,12.07.3,18.15V60.93c1.83.16,3.35.29,5,.29v3.84H104.33V62.31c0-9,.15-18,.15-27a9.1,9.1,0,0,0-.91-3.83c-1.38-2.91-5-3-6.88-.3a6.24,6.24,0,0,0-1.07,3.2C95.66,43.1,95.66,51.8,95.66,60.79Z"/><path d="M215.48,61.12c1.84.15,3.36.15,4.88.3v3.8H201.89V53.63c0-5.82.15-11.6.15-17.42,0-1.52,0-3.21-.76-4.27-.76-1.22-2.28-2.44-3.5-2.44s-2.75,1.22-3.67,2.28a4.22,4.22,0,0,0-.76,2.74V60.94c1.22.17,2.28.17,3.5.3v3.83H175.63V61.24c1.22-.15,2.44-.15,3.67-.3v-34c-1.23-.16-2.3-.16-3.67-.31V22.93h16.48v5.79c.76-.76,1.07-1.22,1.37-1.52a12.73,12.73,0,0,1,13.74-4.89c4.58,1.22,7.64,5,7.94,10.68.31,8.25.31,16.5.46,24.73A24.24,24.24,0,0,0,215.48,61.12Z"/><path d="M279.76,61c1.22.16,2.29.29,3.5.46v3.67H262V61.42c1.22-.17,2.44-.3,3.82-.46v-34c-1.23-.17-2.45-.17-3.82-.32V23h16.48v5.79c.76-.93,1.22-1.52,1.68-2,3.21-4.13,8.4-6.11,13.28-4.56a10.26,10.26,0,0,1,7.94,9.92c.29,5.79.29,11.59.46,17.24V61c1.68.16,3.21.16,5,.29v3.84H288.45V48.89c0-4.42.15-9,.15-13.43,0-.59-.15-1.22-.15-1.82-.46-2.28-1.37-4.26-4.11-4.26a4.4,4.4,0,0,0-4.43,4.41C279.61,42.8,279.76,51.8,279.76,61Z"/><path d="M355.47,61.42c-2.13,1.39-3.82,2.91-5.8,3.8-9,3.84-17.41-2.89-16.48-13,.61-7.17,5.19-11.9,12.36-12.83,3.06-.3,6.27,0,9.31,0,.76-4.43-.31-7.32-3.5-9-3.82-2.15-8.7-.63-13.59,3.8-2.9-2.58-2.9-2.74-.47-5.49,5.81-6.41,14.65-8.69,22.29-5.65,5.65,2.15,8.86,6.41,9,12.36.31,7.48.15,15.11.15,22.59v3.06c1.52.14,2.89.29,4.43.46v4h-6.86c-2.6,0-5.19-.17-7.94,0-2.13.14-3.06-.63-2.74-2.75C355.62,62.18,355.47,61.72,355.47,61.42ZM355,50.74a30,30,0,0,0,0-3.67c-.15-1.22-.61-3.21-1.07-3.21-1.69,0-3.67.17-4.73,1.06-2.6,2.15-2.6,10.25,0,12.37,1.07.92,3.06.92,4.58.76.61,0,1.07-1.82,1.22-2.9A40.52,40.52,0,0,0,355,50.74Z"/><path d="M236.1,46c.3,4.88,1.37,9,5.8,11,5,2.28,9.77.92,13.74-2.91.91.76,1.68,1.39,3.06,2.45-2.29,2.28-4,4.89-6.42,6.57a19.15,19.15,0,0,1-28.85-9.45c-2.59-7.8-2.28-15.58,1.84-22.91,5-8.7,17.85-11.61,26.25-6.12a14.71,14.71,0,0,1,4.73,5.06c2.89,4.87,3.21,10.38,2.74,16.33Zm9.62-4.43c-.61-4.43-1.08-8.56-2-12.53a3.39,3.39,0,0,0-6.41,0c-1.68,4-1.37,8.25-1.22,12.53Z"/><path d="M377.61,11.2c-1.69-.15-2.91-.15-4.43-.3V7.09h18.17V61c1.68.17,3.2.17,5,.3V65.1H377.61Z"/><path d="M411.5,33.78c-3.06-4.88-1.84-11.9,2.44-15.11a3.84,3.84,0,0,1,2.6-.3c4.43,1.22,6.41.63,9-3.21.76-1.06,1.37-2.13,2.59-3.67a32.72,32.72,0,0,1-4.58.76c-.91,0-2.44-.44-2.59-.91a3.28,3.28,0,0,1,.76-2.9,59.89,59.89,0,0,1,4.88-3.51C428,3.87,430.28,3.41,429.2.5c3.67,2.45,6.42,5,6.72,8.86.14,3-.77,6.25-1.08,9.31a5,5,0,0,0,.46,3.06c2.75,3.65,5.49,7.32,9.77,9.62,4.12,2.28,5.19,6.25,2.6,10.53-1.22,2.15-1.37,3.8-.46,5.79s.46,3.67-1.08,5.35c-2,2.28-3.5,4.89-5.34,7.34a2.48,2.48,0,0,1-1.52.76,37.48,37.48,0,0,1-4.12,0c.91-4.73,5.81-6.26,7.18-10.68-1.84-2-4.12-4.13-6.1-6.41a5.2,5.2,0,0,1-1.52-2.45c-.3-2.91-2.14-4.43-4.58-5.95a26.48,26.48,0,0,1-8.55-8.4c-1.37-2-4-3.37-6.1-4.73-.46-.3-2.13.91-2.6,1.82a4.29,4.29,0,0,0,0,3.37C414.39,30.44,412.72,31.79,411.5,33.78Z"/><path d="M325.7,10.9V22.5H332v4H325.4V55.32c0,5,.15,5.19,5,5.19.61,3.67.47,4.13-3.2,4.73a26.66,26.66,0,0,1-8.55,0c-4.43-.76-6.88-4.27-6.88-9.16V26.78c-1.52-.16-2.74-.16-4.11-.3-.77-1.68-.3-2.9,1.22-4.13q6.42-5,12.83-10.08C322.66,11.81,324,11.49,325.7,10.9Z"/><path d="M122.82,26.47c.76-1.52,1.08-3.06,2-3.83,4.11-3.51,8.4-6.87,12.66-10.07a15.1,15.1,0,0,1,3.82-1.69V22.49c1.83.13,3.51.13,5.19.3v3.66c-1.68.14-3.21.14-5.19.3v28.7c0,5,.15,5.19,5,5.19.61,3.67.46,4.13-2.89,4.57a28.62,28.62,0,0,1-8.86.16c-4.58-.76-6.86-4.26-6.86-9.46V27.05A33.5,33.5,0,0,0,122.82,26.47Z"/><path d="M168.17,61.12c1.52.15,2.74.15,4,.3v3.8H151.08v-3.8c1.07-.17,2.13-.17,3.35-.3V26.93c-1.22-.16-2.13-.16-3.35-.31V23h17.25C168.17,35.46,168.17,48.13,168.17,61.12Z"/><path d="M161.44,17.91a33,33,0,0,1-4-.91c-2.44-.93-4.26-2.45-4.43-5.36a6.06,6.06,0,0,1,3.82-5.95,11.25,11.25,0,0,1,9.16.16,5.62,5.62,0,0,1,3.51,5.64,5.74,5.74,0,0,1-4,5.36A18.58,18.58,0,0,1,161.44,17.91Z"/><path d="M432.56,65.55H404.17a5,5,0,0,1-2.13-.16,1.79,1.79,0,0,1-.76-1.06,1.13,1.13,0,0,1,.91-.93,10.94,10.94,0,0,1,2.28-.16h55.88a10.11,10.11,0,0,1,2.13,0c.46.16.76.62,1.22.92-.46.47-.76.93-1.37,1.06a6.6,6.6,0,0,1-1.83,0C451.19,65.55,441.88,65.55,432.56,65.55Z"/><path d="M457.14,53c-4.12-1.22-5.95-3-5.95-6.88s-.76-7.77-1.22-11.6c2.44,1.07,4.72,2.45,5.19,5.5C455.77,44.16,456.53,48.29,457.14,53Z"/><path d="M438.67,47.83c.77.92,1.23,1.69,2,2.61-.76.76-1.84,1.52-2.75,2.28-1.07.93-2.74,1.69-3.35,2.91-1.37,2.89-3.51,2.13-6.1,1.36C431.8,54.08,435,51,438.67,47.83Z"/><path d="M413,17.61c-3.21,5.19-6.56,6.71-10.53,5C405.08,19,409.2,18.83,413,17.61Z"/></svg>