<svg id="Слой_1" data-name="Слой 1" xmlns="http://www.w3.org/2000/svg" viewBox="0 0 327 84"><path d="M136.14,20.11V39.83h11.74l-.1-19.62L147.63.63,141.91.48,136.14.33Z"/><path d="M75.1,7.4c-6.85,1.31-13.8,5.8-16.16,10.45-1.17,2.41-1.22,8.92,0,11.06,2.16,3.95,7.4,7.69,13.61,9.75,3.87,1.26,36.52,1.66,42.59.48,8.37-1.56,15.17-6.46,16.89-12.06.93-3.23.93-4.58-.1-7.64-1.52-4.78-6.12-8.62-13.21-11.11L114.85,7l-18.11-.1C83.28,6.8,77.74,6.94,75.1,7.4ZM117.59,18c3.48,1.61,4.79,5,3.13,8.19-1.76,3.4-7.29,4.13-29.12,3.79-10.38-.15-16.6-.44-17.82-.83-2.94-.88-4.7-2.91-4.7-5.36,0-3.74,1.66-5.4,6.62-6.52.53-.1,9.79-.2,20.55-.15C113.18,17.17,116.07,17.27,117.59,18Z"/><path d="M273.19,23.21V39.88l5.77-.15,5.74-.14.15-11.11.1-11.06h13.21c13.41,0,15.18.2,16,1.91a94.23,94.23,0,0,1,.63,10.5l.25,9.74,5.72.15,5.73.15.35-1.28c.15-.68.2-5.79.1-11.35-.2-9.25-.3-10.28-1.38-12.66a12.86,12.86,0,0,0-7.29-6.71c-2-.78-4.84-.88-23.64-1.07l-21.43-.19v16.6Z"/><path d="M.54,23.51V39.83H12.28l.1-11.1.15-11.06,13-.15c9-.1,13.41.05,14.34.43,2.5,1,2.78,2.38,2.78,12.61v9.31l5.77-.15,5.74-.15V28.12c0-10.66,0-11.58-1-13.68a12.78,12.78,0,0,0-5.82-5.95C45.38,7.43,44.89,7.43,23,7.28L.54,7.13V23.51Z"/><path d="M157.92,13.62c-4.56,3.45-8.32,6.64-8.32,7s4,4.82,8.82,9.93l8.81,9.21,7.74.05c4.21,0,7.69-.1,7.69-.29s-4.16-4.34-9.3-9.3-9.3-9.15-9.3-9.35,3.92-3.09,8.72-6.34,9-6.22,9.4-6.62c.58-.58-.5-.68-7.59-.63h-8.32Z"/><path d="M185.09,23.51V39.83h11.74V7.2H185.09Z"/><path d="M214.86,7.92c-3.92,1-8.27,3.26-10.08,5.31-2.94,3.36-3.28,4.44-3.28,10.33,0,5,.1,5.55,1.47,8.27a11.07,11.07,0,0,0,4.16,4.67c4.41,3,6.61,3.33,22.56,3.33h14L246.14,37c1.32-1.51,3.08-3.7,4-4.82l1.62-2L234.93,30c-18.4-.15-19.14-.3-21.39-3.11-1.57-2-1.22-5.75.64-7.32,2.4-2.08,4.06-2.28,23.4-2.47l18.5-.24.1,11.38.15,11.36,5.67.14,5.73.15.35-15.25c.2-8.42.3-15.67.2-16.23-.2-1-.73-1-25.41-1.06C222.78,7.3,217.05,7.4,214.86,7.92Z"/><path d="M100.76,82a3.09,3.09,0,0,1-.18.84,2.27,2.27,0,0,1-.33.58,1.12,1.12,0,0,1-.38.32.91.91,0,0,1-.41.1h-1a1.51,1.51,0,0,1-.7-.15,1.34,1.34,0,0,1-.49-.51,4.25,4.25,0,0,1-.38-.94c-.11-.39-.23-.88-.35-1.46L92.69,63.62c-.26-1.23-.52-2.45-.77-3.67s-.51-2.44-.75-3.66h0c-.14,1.35-.28,2.7-.44,4.05s-.31,2.69-.48,4L87.85,83.11a.92.92,0,0,1-.12.34.64.64,0,0,1-.25.24,2.86,2.86,0,0,1-1.66.15,1.34,1.34,0,0,1-.37-.15.41.41,0,0,1-.17-.24,1.25,1.25,0,0,1,0-.34L89,53.43A2.5,2.5,0,0,1,89.55,52a1.13,1.13,0,0,1,.81-.42H91.6a1.62,1.62,0,0,1,.66.12,1.1,1.1,0,0,1,.49.45,4.11,4.11,0,0,1,.36.83c.1.35.22.78.34,1.31l3.86,17.37c.24,1.07.48,2.15.71,3.23s.47,2.16.71,3.25h0c.15-1.35.31-2.76.48-4.22s.34-2.86.51-4.22L102,52.3a1,1,0,0,1,.11-.34.75.75,0,0,1,.23-.24,1.3,1.3,0,0,1,.41-.15,3.48,3.48,0,0,1,.63,0,3.37,3.37,0,0,1,.6,0,1,1,0,0,1,.38.15.55.55,0,0,1,.19.24.88.88,0,0,1,0,.34Z"/><path d="M125.17,62.37c0,1.28-.07,2.71-.22,4.28a43.5,43.5,0,0,1-.74,4.79,31.71,31.71,0,0,1-1.38,4.73,17.61,17.61,0,0,1-2.11,4.08,10.62,10.62,0,0,1-3,2.87,7.23,7.23,0,0,1-4,1.1,6.71,6.71,0,0,1-3.15-.71,6,6,0,0,1-2.25-2.11A10.89,10.89,0,0,1,107,77.93a21.86,21.86,0,0,1-.46-4.77c0-1.43.08-3,.24-4.6a41.42,41.42,0,0,1,.78-4.91A32.93,32.93,0,0,1,109,58.94a17.15,17.15,0,0,1,2.14-4,9.9,9.9,0,0,1,3-2.78,7.34,7.34,0,0,1,3.9-1,6.44,6.44,0,0,1,3.13.74A6.08,6.08,0,0,1,123.36,54a11.23,11.23,0,0,1,1.37,3.54A24,24,0,0,1,125.17,62.37Zm-2.9.3a18.47,18.47,0,0,0-.26-3.19,8.19,8.19,0,0,0-.8-2.49,4.28,4.28,0,0,0-1.46-1.63,4,4,0,0,0-2.2-.58,4.54,4.54,0,0,0-2.87,1,8.48,8.48,0,0,0-2.15,2.49A16.3,16.3,0,0,0,111,61.72a34.71,34.71,0,0,0-1,3.94c-.23,1.32-.4,2.61-.5,3.85s-.15,2.32-.15,3.23a18.12,18.12,0,0,0,.25,3.19,7.43,7.43,0,0,0,.81,2.45A4.24,4.24,0,0,0,112,80a4.17,4.17,0,0,0,2.21.56,4.5,4.5,0,0,0,2.85-.94,8.24,8.24,0,0,0,2.12-2.45,16.68,16.68,0,0,0,1.5-3.44,32.79,32.79,0,0,0,1-3.91,38.23,38.23,0,0,0,.51-3.84Q122.27,64.1,122.27,62.67Z"/><path d="M142.55,58.32a16.08,16.08,0,0,1-.31,3.25,12,12,0,0,1-.92,2.84,9.23,9.23,0,0,1-1.56,2.3,7.59,7.59,0,0,1-2.18,1.63,3.48,3.48,0,0,1,1.36,2,19.32,19.32,0,0,1,.8,4l.84,7.11c0,.32.06.61.09.88s0,.52,0,.73a.8.8,0,0,1-.08.39.64.64,0,0,1-.25.27,1.62,1.62,0,0,1-.48.14,4,4,0,0,1-.75.06,3,3,0,0,1-.66-.06.71.71,0,0,1-.39-.17.69.69,0,0,1-.18-.31,3.22,3.22,0,0,1-.09-.51l-.8-7.55a23.11,23.11,0,0,0-.35-2.39,6.92,6.92,0,0,0-.64-1.85A3.31,3.31,0,0,0,135,69.85a2.67,2.67,0,0,0-1.55-.43h-1.81l-1.75,13.72a1,1,0,0,1-.11.33.61.61,0,0,1-.26.24,1.75,1.75,0,0,1-.44.14,2.42,2.42,0,0,1-.66.07,2.77,2.77,0,0,1-.62-.06,1.15,1.15,0,0,1-.41-.14.41.41,0,0,1-.19-.24.62.62,0,0,1,0-.34l3.78-29.8a2.52,2.52,0,0,1,.5-1.35,1.16,1.16,0,0,1,.84-.39h4.42a6.67,6.67,0,0,1,2.55.45,4.74,4.74,0,0,1,1.83,1.3,5.5,5.5,0,0,1,1.11,2.12A9.85,9.85,0,0,1,142.55,58.32Zm-2.93.67a6.09,6.09,0,0,0-.19-1.57,3.32,3.32,0,0,0-.59-1.24,2.4,2.4,0,0,0-1.05-.79,3.9,3.9,0,0,0-1.55-.28h-2.82L132,66h2.4a4.54,4.54,0,0,0,2.39-.6,4.8,4.8,0,0,0,1.6-1.57,7.59,7.59,0,0,0,.92-2.22A12.12,12.12,0,0,0,139.62,59Z"/><path d="M162.56,63.17c0,1.07,0,2.2-.14,3.36s-.25,2.34-.45,3.51a32.43,32.43,0,0,1-.79,3.44A22.75,22.75,0,0,1,160,76.7a17.57,17.57,0,0,1-1.62,2.82,11.55,11.55,0,0,1-2.11,2.24,9.09,9.09,0,0,1-2.62,1.46,10.54,10.54,0,0,1-3.48.52h-4.52a.86.86,0,0,1-.39-.09.82.82,0,0,1-.31-.28,1.37,1.37,0,0,1-.18-.54,3.07,3.07,0,0,1,0-.83l3.62-28.67A2.31,2.31,0,0,1,148.9,52a1.11,1.11,0,0,1,.84-.39H154a8.57,8.57,0,0,1,3.89.79,6.81,6.81,0,0,1,2.57,2.27A10.61,10.61,0,0,1,162,58.28,20.72,20.72,0,0,1,162.56,63.17Zm-2.86.37a16.31,16.31,0,0,0-.33-3.39,7.86,7.86,0,0,0-1-2.64,5,5,0,0,0-1.77-1.73,5.56,5.56,0,0,0-2.86-.64H150.9l-3.17,25h2.8a6.45,6.45,0,0,0,3.22-.73,7.65,7.65,0,0,0,2.28-2,12.35,12.35,0,0,0,1.69-2.92,25.57,25.57,0,0,0,1.13-3.5,31.42,31.42,0,0,0,.65-3.76A37,37,0,0,0,159.7,63.54Z"/><path d="M182.43,82.88a3,3,0,0,1-.1.45.66.66,0,0,1-.23.32,1.21,1.21,0,0,1-.44.19,3.27,3.27,0,0,1-.69.06,3.41,3.41,0,0,1-.71-.06,1.12,1.12,0,0,1-.41-.19.55.55,0,0,1-.19-.32,1.68,1.68,0,0,1,0-.45L182,56.71h0L175.4,82.85a1.19,1.19,0,0,1-.52.83,2.32,2.32,0,0,1-1.09.21,1.61,1.61,0,0,1-1-.28.94.94,0,0,1-.33-.71l-1.7-26.22h0l-2.36,26.2a1.63,1.63,0,0,1-.09.45.85.85,0,0,1-.24.32,1.39,1.39,0,0,1-.44.19,3.44,3.44,0,0,1-.7.06,3.27,3.27,0,0,1-.69-.06,1.17,1.17,0,0,1-.42-.19.61.61,0,0,1-.19-.32,1.13,1.13,0,0,1,0-.45l2.57-28.66a8.05,8.05,0,0,1,.18-1.11,3.32,3.32,0,0,1,.29-.83,1.42,1.42,0,0,1,.4-.51.74.74,0,0,1,.48-.18h1.83a1.68,1.68,0,0,1,.84.19,1.36,1.36,0,0,1,.57.63,4.18,4.18,0,0,1,.35,1.17,13.29,13.29,0,0,1,.15,1.74l1.41,19.13h0l5-19.13q.23-1,.45-1.68a5.4,5.4,0,0,1,.5-1.17,1.91,1.91,0,0,1,.61-.67,1.43,1.43,0,0,1,.79-.21h2.08a.72.72,0,0,1,.48.18,1.07,1.07,0,0,1,.32.51,3.44,3.44,0,0,1,.15.82,8.52,8.52,0,0,1,0,1.11Z"/><path d="M204.14,82.22a5.58,5.58,0,0,1,0,.89.84.84,0,0,1-.17.51.77.77,0,0,1-.47.22,6.08,6.08,0,0,1-.84,0,3.47,3.47,0,0,1-.6,0,1.06,1.06,0,0,1-.39-.12.41.41,0,0,1-.19-.24.78.78,0,0,1-.08-.37l-.76-7.82h-8.49l-2.66,7.75a1.83,1.83,0,0,1-.18.42.88.88,0,0,1-.28.26,1.29,1.29,0,0,1-.48.14,4.78,4.78,0,0,1-.71,0,3.82,3.82,0,0,1-.76-.06.69.69,0,0,1-.4-.24.79.79,0,0,1-.06-.51,8,8,0,0,1,.22-.88l10.61-29.87a1.57,1.57,0,0,1,.24-.45.8.8,0,0,1,.33-.27,1.69,1.69,0,0,1,.52-.15q.31,0,.78,0t.84,0a1.61,1.61,0,0,1,.52.15.59.59,0,0,1,.28.28,2.22,2.22,0,0,1,.11.46Zm-5.31-26.36h0l-5.51,16h7.06Z"/><path d="M222.92,82a3.09,3.09,0,0,1-.18.84,2.61,2.61,0,0,1-.33.58,1.15,1.15,0,0,1-.39.32.85.85,0,0,1-.4.1h-1a1.48,1.48,0,0,1-.7-.15,1.34,1.34,0,0,1-.49-.51,4.25,4.25,0,0,1-.38-.94c-.11-.39-.23-.88-.35-1.46l-3.83-17.14c-.26-1.23-.52-2.45-.77-3.67s-.51-2.44-.75-3.66h0c-.14,1.35-.28,2.7-.44,4.05l-.48,4L210,83.11a1.14,1.14,0,0,1-.12.34.64.64,0,0,1-.25.24,2.66,2.66,0,0,1-.43.15,2.71,2.71,0,0,1-.62.06,2.68,2.68,0,0,1-.61-.06,1.34,1.34,0,0,1-.37-.15.41.41,0,0,1-.17-.24,1.25,1.25,0,0,1,0-.34l3.75-29.68a2.5,2.5,0,0,1,.53-1.42,1.12,1.12,0,0,1,.81-.42h1.24a1.62,1.62,0,0,1,.66.12,1,1,0,0,1,.48.45,3.6,3.6,0,0,1,.37.83c.1.35.22.78.34,1.31l3.86,17.37c.24,1.07.48,2.15.71,3.23s.47,2.16.71,3.25h0c.15-1.35.31-2.76.48-4.22s.34-2.86.51-4.22l2.22-17.41a1,1,0,0,1,.11-.34.75.75,0,0,1,.23-.24,1.3,1.3,0,0,1,.41-.15,3.44,3.44,0,0,1,.62,0,3.49,3.49,0,0,1,.61,0,1,1,0,0,1,.38.15.55.55,0,0,1,.19.24.88.88,0,0,1,0,.34Z"/></svg>