<svg xmlns="http://www.w3.org/2000/svg" viewBox="0 0 907 84"><defs><style>.cls-1{fill:#214574;}</style></defs><g id="Слой_2" data-name="Слой 2"><path class="cls-1" d="M410.75,16.52c1.86-12,9.26-12.69,16.94-12.71q44.4-.08,88.81,0c13.19,0,26.42.56,39.57-.16C568,3,576.09,7.2,582.45,17.41c10.91,17.49,11.15,17,28.84,5.77,9.41-6,19.35-11.12,29.32-16.12,2.92-1.46,6.75-1.11,10.17-1.58.42.8.85,1.6,1.28,2.39-10.43,7-20.36,15-31.37,20.87-19.82,10.62-35,24.65-42.23,46.61-1.17,3.51-6.66,7.53-10.45,7.86-11.77,1-23.68.37-37.74.37,3.35-8.22,6.1-15.17,9-22.06,6.38-15.07-1.3-27-9.47-38.1-6.25-8.47-25.09-11.83-34.93-6.79-4.15,2.12-7.81,6.72-9.9,11.06-6.84,14.17-13.12,28.64-19.08,43.2-3.23,7.89-8.13,11.68-16.84,11.3-10.52-.45-21.07-.1-33.46-.1,9.45-22.38,18.24-43.18,27.69-65.57Z"/><path class="cls-1" d="M746.9,50.31,769.49,83.5c-15.82,0-29.79.33-43.72-.28-2.83-.13-6.22-3.29-8.11-5.94-6.33-8.88-12.28-18.05-18-27.33-6-9.67-3.47-14.44,8-16.26,5.39-.86,11-1.21,16-3.19,3-1.18,4.85-5.07,7.23-7.74-2.57-2-4.88-5.08-7.74-5.71-16.1-3.58-23,.09-29.85,15-6,13.15-12.11,26.25-17.74,39.56-3.8,9-10.1,12.49-19.65,12-9.79-.48-19.63-.11-31.09-.11,4.6-11,8.5-20.35,12.48-29.72,5.52-13,11.17-26,16.63-39,3.19-7.61,8.21-11.45,17-11.33,28.92.39,57.85.21,86.77.3,2.23,0,4.92-.34,6.61.72,4.69,3,11.78,6,12.68,10.1,1,4.71-2.3,11.89-6,15.81C763.94,37.77,755.3,43.52,746.9,50.31Z"/><path class="cls-1" d="M404.17,83.69c-18.49,0-34.85.47-51.13-.38-3.46-.17-7.43-4.61-9.86-8-8-11.23-15.12-23.15-23.37-34.2-2.1-2.81-8.69-5.83-10.62-4.61-15.29,9.6-30,20.2-44.81,30.49l1.19,2.52H319c.21,8.59-2.18,14.16-11.06,14.19q-39,.12-78.08,0c-1.16,0-2.31-.55-5.38-1.33,3.84-3.11,6.25-5.46,9-7.26Q284.38,41.92,335.33,8.92c12.9-8.32,20.08-6.76,28,6,12.09,19.34,24,38.81,35.84,58.29C400.83,75.82,401.89,78.81,404.17,83.69Z"/><path class="cls-1" d="M39.44,69.44H94.78C90.93,79.26,87.67,82.9,79,82.52c-21.81-1-43.7-.37-65.56-.4H2.21l-1-2.48c2.57-2,5-4,7.72-5.82q50-32.83,100-65.56C125-2.25,131.52-.56,141.52,16.05s20.14,32.88,30.08,49.4c3.11,5.19,5.73,10.68,9.1,17-17.24,0-33.43,1-49.38-.56-5.08-.48-10.44-6.89-14.08-11.77-7.08-9.51-12.89-20-19.52-29.81-4.18-6.23-9-7.74-16-2.85C67.77,47.15,53.22,55.91,38.94,65Z"/><path class="cls-1" d="M874,70.46c1.1,9.63-3.39,13-10.41,13-23.77.2-47.57.77-71.3-.2-21.9-.9-29.95-14.32-22.56-35C779.87,19.91,807.25,2.47,837.09,4c18.24.93,36.57-.08,54.86,0,4,0,8,.76,12,1.16.42,8.74-4,11.49-10.65,11.62-12.52.23-25,.52-37.55.21-16-.4-23.62,4-30.24,18.57-3,6.73-6,13.48-8.67,20.37-3.77,9.9-1.34,13.92,9.35,14.37,12.19.51,24.41.19,36.61.22Z"/><path class="cls-1" d="M143.29,3.84c18.36,0,34.69-.45,51,.35,3.62.18,7.92,4.1,10.37,7.43,7,9.56,13.51,19.57,19.8,29.65,8.49,13.59,10.41,14.08,24.1,5.07C267.3,34,286,21.49,305,9.52c5-3.14,11.05-4.57,16.61-6.79l1.22,2.7a65.63,65.63,0,0,1-5.55,4.62Q265.56,44.46,213.77,78.8C201.42,87,193.41,85.43,185.72,73,171.89,50.6,158.18,28.12,143.29,3.84Z"/><path class="cls-1" d="M890.74,33.8c1.11,7.66-2,11.7-8,11.85-17.19.43-34.4.15-52,.15-.71-7.92,2.65-11.8,9.5-11.91C856.9,33.63,873.52,33.8,890.74,33.8Z"/></g></svg>