<svg id="Слой_1" data-name="Слой 1" xmlns="http://www.w3.org/2000/svg" viewBox="0 0 288 84"><path d="M243.29,59.92a1.3,1.3,0,0,1-.64.28c-1,.19-2,.28-3.06.37-1.94.19-3.79.28-5.73.37-1.2.09-2.31.09-3.52.19-1.66.09-3.32.27-5.08.37-1.57.09-3.15.18-4.72.37a92.48,92.48,0,0,1-10,0c-1.48-.1-3-.37-4.34-.56a11.6,11.6,0,0,0-1.76-.09l-2.68-.28c-.93-.09-1.85-.28-2.78-.37a.58.58,0,0,1-.37-.09,41.75,41.75,0,0,1-9.8-4.16,9.06,9.06,0,0,1-3.33-3.89,10.11,10.11,0,0,1-.83-2.86,14.86,14.86,0,0,0-.65-2,.7.7,0,0,0-.83-.46c-.37.09-.83.09-1.11.37a23.45,23.45,0,0,0-3.24,2A55.6,55.6,0,0,1,174.21,53a13.34,13.34,0,0,0-1.85,1.48,45.14,45.14,0,0,1-5.64,4.71,81.35,81.35,0,0,0-6.75,6,26.56,26.56,0,0,1-4.35,3.51,16.61,16.61,0,0,0-2,1.57c-.93.56-1.85,1.2-2.78,1.67-.74.37-1.57.74-2.31,1.11a8.5,8.5,0,0,1-4.25,1,16.74,16.74,0,0,1-4.81-.46,6.34,6.34,0,0,1-3-1.66l-2.22-2.22a3.83,3.83,0,0,1-.93-1.67,15,15,0,0,0-.64-1.85,1.27,1.27,0,0,0-1.85-.74,9.94,9.94,0,0,0-1.58,1.11c-1.57,1.39-3.14,2.87-4.81,4.35A20,20,0,0,1,122.61,72a11.24,11.24,0,0,1-1.76,1,4.75,4.75,0,0,1-1.2.46c-.74.28-1.58.37-2.32.65a9.63,9.63,0,0,1-3.23.74,7.68,7.68,0,0,1-3.52-.56A10.2,10.2,0,0,1,106,71.11c-.56-.64-1.11-1.11-1.57-1.75a3.22,3.22,0,0,1-.56-1.3,20.66,20.66,0,0,1-.65-2.22c0-.18-.09-.27-.18-.46a13.7,13.7,0,0,1,.28-5.83c.18-.64.37-1.29.55-1.94a11.54,11.54,0,0,1,.83-1.85A1.75,1.75,0,0,0,103.28,53H95.51a9.45,9.45,0,0,0-4.72,1.2c-1.11.65-7,4.16-8.6,5.73A19.49,19.49,0,0,0,80,63.25c-.74,1.3-4.71,11.56-5.18,13.23a4.48,4.48,0,0,1-2.12,2.59,2,2,0,0,1-2.22-.19A3.41,3.41,0,0,1,69.15,75c.19-.83.37-1.67.56-2.5.09-.37,4.44-14.89,4.53-16.55a12.26,12.26,0,0,1,.83-3.05l.05-.16c.38-1.23,1.81-6.35,2-7a12.52,12.52,0,0,1,1.66-2.68,2.14,2.14,0,0,1,3.51-.55,4.1,4.1,0,0,1,1.3,2.68v.37a4.91,4.91,0,0,1-.93,4.07,1.21,1.21,0,0,0,.19,1.76,1.65,1.65,0,0,0,2,.46l1.67-1.11c.74-.46,1.39-.83,2.13-1.2.55-.28,5.73-2,7.39-1.58.19,0,.28.1.47.1,1.94-.1,3.51,1,5.08,1.85,1.11.55,2.22,1.11,3.33,1.57a1.61,1.61,0,0,0,2-.46c.55-.65,1.11-1.3,1.75-1.95,1.11-1.11,2.13-2.22,3.24-3.23a12.48,12.48,0,0,1,2.22-1.58c.46-.27,5.27-2.4,7.31-2.4a10.66,10.66,0,0,1,3,.37,3,3,0,0,1,2,2.68v.46a11.94,11.94,0,0,1-.09,5.09,4.12,4.12,0,0,1-.47,1.11,8.93,8.93,0,0,1-3.51,2.87c-.37.18-.74.46-1.2.74a37.88,37.88,0,0,1-3.79,2A7.09,7.09,0,0,1,114,58h-1.75a3.17,3.17,0,0,0-2.78,1.57,6.35,6.35,0,0,0-.83,3.43,7.28,7.28,0,0,0,3.24,6.1,6.83,6.83,0,0,0,6.38.83,50.66,50.66,0,0,0,7.95-3.42c1.2-.55,2.31-1.2,3.52-1.85a3.12,3.12,0,0,0,1.94-3.14,8.58,8.58,0,0,1,.46-2.69,47.69,47.69,0,0,1,2.41-6,25.16,25.16,0,0,1,6.28-7.67,4,4,0,0,1,1-.74c1-.65,2.13-1.3,3.15-2,.18-.09.27-.18.46-.27a17.33,17.33,0,0,1,6.93-.74,3.92,3.92,0,0,1,3.24,3.51c-.09,1.2.09,2.5.09,3.7a2.52,2.52,0,0,1-.64,1.85,20.4,20.4,0,0,1-3.61,3.33c-1,.65-2,1.29-3.15,1.94-.55.28-1.2.46-1.75.74-1.67,1-3.52,1-5.37,1.2a5.62,5.62,0,0,0-1.29.1c-.93.18-2,3.14-2.22,3.7a2.58,2.58,0,0,0-.09,1.2,8.53,8.53,0,0,0,2.68,5.36,6.14,6.14,0,0,0,5.18,1.39c1.2-.19,2.4-.46,3.6-.74.56-.19,4.91-2,6.11-2.68A27.59,27.59,0,0,0,159,63.72c1.76-1.58,3.61-2.87,5.46-4.26s3.24-2.77,4.9-4.16c.37-.28.65-.56,1-.83A36.88,36.88,0,0,0,176,50a13.57,13.57,0,0,1,1.38-1,16,16,0,0,0,3.24-2.31A6.05,6.05,0,0,1,184,45c1.11-.09,1.57.19,1.67,1.3a10.27,10.27,0,0,1,.09,1.66,9.1,9.1,0,0,0,3.14,6.57,18.89,18.89,0,0,0,4.07,2.5,26.86,26.86,0,0,0,4.63,1.57c2.12.55,4.34.74,6.56,1.2a10.39,10.39,0,0,0,1.67.09,32.62,32.62,0,0,1,4.16.37c1.2.19,2.5.28,3.7.37,2.13.1,4.34.1,6.47.1h3.7a11.08,11.08,0,0,0,2.41-.28,45.08,45.08,0,0,1,4.9-.56c2.59-.09,5.18-.27,7.77-.37,1-.09,1.94-.09,3-.09h.47c.18,0,1.94-.09.64.19C243.29,59.83,243.29,59.92,243.29,59.92Zm-98.95-6.47h0a4.08,4.08,0,0,0,1.48-.28c1.85-.55,3.05-2,4.25-3.42a2.56,2.56,0,0,0,.46-2,1.08,1.08,0,0,0-.92-1,1.84,1.84,0,0,0-1.2.09,13.19,13.19,0,0,0-4.07,2.13,4.64,4.64,0,0,0-1.85,2.5c-.28,1.11.18,1.85,1.29,1.94A1.22,1.22,0,0,0,144.34,53.45Zm-28.58.46a9.68,9.68,0,0,0,1.48-.55,8.72,8.72,0,0,0,4-3.33,1.53,1.53,0,0,0-.09-1.76,1.38,1.38,0,0,0-1.76-.55,11.6,11.6,0,0,0-3.89,2.12,6.64,6.64,0,0,0-1.38,1.76C113.36,52.8,114.1,53.91,115.76,53.91Z"/><path d="M87,35.32a3.77,3.77,0,0,1-.92.19,34.81,34.81,0,0,0-7.59,1.2C78,36.8,60,43,57.78,43.92c-.24.08-.48.23-.71.33,0,0-4.19,1.71-6.23,2.63a4,4,0,0,0-2.13,2.59c-.27,1-7.86,29.41-8.13,30.06-.47.83-2.41,2.5-3,2.31-1.3-.46-1.48-1.39-1.39-2.59A47.54,47.54,0,0,1,37,72c.28-1.48,3.61-19.89,3.61-20.53a2,2,0,0,0-1.67-2.13c-.55-.09-3.42-.37-4.25-.56a1.27,1.27,0,0,1-.74-2.22,17.88,17.88,0,0,1,4-2.12c.37-.19,2.13-.65,2.59-.84a2.36,2.36,0,0,0,1.39-1.29C42.42,41.15,55.09,6.93,55.56,6.1c.55-1.2,1.2-2.4,1.85-3.51S60.92.27,61.2.18a1.44,1.44,0,0,1,2,.65c1.37,1.85.56,4.35.37,5.92a14.47,14.47,0,0,1-1,3.42,1.47,1.47,0,0,0,.83,2.22,1.13,1.13,0,0,0,1.2,0c2-.71,6.38-2.22,6.94-2.41s5.82-1.66,7.86-2.12c.74-.19,1.48-.28,2.22-.47A5.46,5.46,0,0,1,86,7.86c1.11.64,2.22,1.29,3.33,2a2.89,2.89,0,0,1,1.3,2.31c0,.93.18,1.85.18,2.78a5.94,5.94,0,0,1-1.29,3.6,22.69,22.69,0,0,1-5.37,5,35,35,0,0,1-4.53,2.31c-1.85,1-3.79,1.57-5.64,2.41a29.77,29.77,0,0,1-4.72,1.84c-.27.1-.55.28-.83.37-1,.37-2.13.74-3.14,1-.09,0-.19.09-.28,0s-.55-.09-.65-.18c-.18-.28.1-.56.37-.65,1.48-.46,4.72-1.85,4.9-1.94,1.67-.74,6.66-3,6.94-3.05,1.39-.74,4.53-2.5,4.72-2.59a32.84,32.84,0,0,0,5-3.52,5,5,0,0,0,1.48-2.22,2.43,2.43,0,0,0-1.29-2.77,6.47,6.47,0,0,0-1.85-.37c-5,.44-18.59,3.33-19.42,3.51a10.39,10.39,0,0,0-3.89,2,26.88,26.88,0,0,0-4,4.07,21.32,21.32,0,0,0-1.11,2,9.56,9.56,0,0,0-.64,1.39c-.28.74-.65,1.39-.93,2.12s-.55,1.39-.83,2.13-.65,1.76-.92,2.59-.56,1.57-.84,2.41A1.88,1.88,0,0,0,54.26,39a2.39,2.39,0,0,0,.65-.18c2.4-.65,4.81-1.39,7.21-2,.74-.18,7.12-1.29,9.07-1.48,2.31-.18,4.53-.27,6.84-.46,1.66-.09,3.24-.28,4.9-.37,1.11,0,2.22,0,3.33.09C86.17,34.77,86.63,34.77,87,35.32Z"/><path d="M15.05,46.05s2.68.74,2.59,2.5a25.4,25.4,0,0,1-1,5.83c-.27.83-.46,1.75-.74,2.68a19.26,19.26,0,0,1-.74,2.22c-.27.83-.55,1.66-.83,2.4-.65,1.85-1.2,3.7-1.76,5.55-.37,1-1.66,5-2.12,5.83-1,2.12-2.13,4.25-3.24,6.28A15,15,0,0,1,4.42,83a4.66,4.66,0,0,1-1.85,1A1.32,1.32,0,0,1,.9,82.4a3.08,3.08,0,0,1,.19-.93c.64-1.66,1.94-7,2.12-8s2.69-9.71,3-10.73c.19-.65,2-7.12,2.87-9.43a2.65,2.65,0,0,0-.46-3,1.35,1.35,0,0,1,.18-2.13C10.06,47.07,13.48,45.68,15.05,46.05Z"/><path d="M20.78,34.21a1.47,1.47,0,0,1-1.57,1.48c-1.85,0-3.7-.27-4.71-1.94-1.39-2.4-1.85-5.08.55-7.21a4.28,4.28,0,0,1,3.24-1.3,2.3,2.3,0,0,1,2.31,2.32C20.6,28.11,20.88,33.1,20.78,34.21Z"/><path d="M245.33,59.09a.09.09,0,0,0,.09-.09,6.31,6.31,0,0,1,2.4-.46,49.53,49.53,0,0,0,5-.28c.83-.09,1.66-.28,2.5-.37.46,0,.92-.19,1.29.18,0,.47-.37.56-.65.65a10.1,10.1,0,0,1-1.85.37l-6.56.56a11.42,11.42,0,0,1-1.85-.1c-.19,0-.28-.18-.47-.18C245.33,59.18,245.33,59.18,245.33,59.09Z"/><path d="M287.5,54.47a18.79,18.79,0,0,1-3.15.37,22.45,22.45,0,0,0-5.54.92,19.25,19.25,0,0,1-5.09.56,1.78,1.78,0,0,1-.65-.19V56a4.52,4.52,0,0,1,1.11-.28c1.57-.19,3.15-.28,4.81-.46a10,10,0,0,0,2.22-.56,18.4,18.4,0,0,1,6.38-.37C287.5,54.37,287.5,54.37,287.5,54.47Z"/><path d="M269.37,56.5c-.09.56-.46.65-.74.74a13.25,13.25,0,0,1-1.94.37l-4.44.28a4.88,4.88,0,0,1-2.22-.37,21.5,21.5,0,0,1,4.72-.65A39.94,39.94,0,0,1,269.37,56.5Z"/><path d="M243.85,59.37c-.19,0-.37.09-.56.09Z"/><path d="M246,58.81l.47.74-3.7.65-.28-.65L256,57.89l5-.65,12.85-1.48.46.65-6,.92L256,58.81"/></svg>